<?xml version="1.0" standalone="no"?>
<!DOCTYPE svg PUBLIC "-//W3C//DTD SVG 20010904//EN"
 "http://www.w3.org/TR/2001/REC-SVG-20010904/DTD/svg10.dtd">
<svg version="1.0" xmlns="http://www.w3.org/2000/svg"
 width="300.000000pt" height="300.000000pt" viewBox="0 0 300.000000 300.000000"
 preserveAspectRatio="xMidYMid meet">

<g transform="translate(0.000000,300.000000) scale(0.100000,-0.100000)"
fill="#000000" stroke="none">
<path d="M1325 2451 c-67 -30 -129 -114 -155 -210 -15 -55 -44 -84 -106 -104
-27 -9 -170 -32 -319 -52 -148 -20 -285 -41 -302 -46 -37 -12 -43 -34 -13 -44
18 -6 20 -15 20 -91 0 -82 -1 -84 -22 -79 -13 2 -85 16 -160 31 -119 22 -141
24 -165 12 -22 -10 -29 -21 -31 -50 -4 -52 13 -60 207 -103 91 -20 168 -38
173 -41 4 -3 8 -58 8 -122 0 -123 15 -252 50 -424 35 -175 88 -315 157 -416
41 -59 65 -70 228 -96 260 -43 837 -46 1115 -6 84 12 240 48 256 58 28 19 90
130 134 242 50 126 100 411 107 608 3 84 9 154 12 156 4 3 70 18 146 35 196
44 213 49 225 71 18 34 12 68 -16 87 -25 16 -33 15 -168 -10 -211 -41 -191
-45 -188 38 3 58 7 73 25 88 l22 17 -24 20 c-17 15 -38 20 -81 20 -32 0 -105
11 -163 25 -57 14 -181 36 -274 49 -94 14 -185 32 -201 40 -35 18 -62 52 -62
78 0 33 -68 154 -104 186 -46 40 -91 52 -201 52 -65 0 -101 -5 -130 -19z m255
-79 c27 -13 44 -34 73 -92 21 -41 47 -86 58 -98 11 -13 19 -25 17 -27 -2 -2
-69 1 -150 7 -107 8 -178 8 -260 0 -62 -6 -115 -9 -117 -6 -2 2 5 14 16 27 12
12 35 51 52 86 37 77 48 90 86 107 45 20 182 18 225 -4z m-210 -402 c0 -11 -6
-36 -14 -54 l-14 -33 -107 -7 c-59 -4 -116 -11 -125 -16 -18 -9 -23 -59 -32
-325 l-3 -70 95 -3 c52 -2 99 -7 103 -11 5 -5 3 -27 -4 -49 l-12 -41 -91 -3
c-65 -2 -91 -7 -90 -15 1 -7 2 -87 3 -178 l1 -165 74 0 c83 0 87 -4 77 -65
l-6 -40 -119 -3 c-66 -1 -123 1 -127 5 -26 26 -16 1040 10 1066 13 13 132 24
264 26 111 1 117 0 117 -19z m189 -97 c11 -65 41 -269 66 -453 25 -184 59
-414 75 -510 16 -96 30 -181 30 -187 0 -9 -17 -13 -54 -13 l-53 0 -35 213 -34
212 -66 3 c-57 2 -67 0 -72 -15 -3 -10 -12 -90 -21 -178 -21 -220 -22 -224
-53 -232 -28 -7 -344 5 -367 14 -19 7 -19 36 1 74 15 29 18 30 62 25 26 -3 86
-8 134 -12 106 -8 100 -17 123 176 8 74 31 241 50 370 18 129 45 318 60 420
14 102 28 191 30 198 3 7 23 12 54 12 l49 0 21 -117z m496 86 c181 -17 278
-30 343 -44 19 -5 22 -12 22 -55 l0 -49 -62 -3 -63 -3 -7 -235 c-9 -272 -22
-443 -49 -625 -32 -216 -23 -195 -85 -195 -29 0 -55 3 -57 8 -3 4 3 45 14 92
35 162 51 338 56 637 3 160 3 303 -1 316 -3 14 -13 27 -21 31 -14 5 -251 33
-437 52 -63 6 -67 8 -77 37 -25 70 -25 71 107 63 64 -4 207 -16 317 -27z
m-1145 -48 c0 -59 -4 -61 -111 -61 -62 0 -81 -3 -86 -15 -3 -9 -2 -94 2 -190
l7 -175 83 0 c89 0 95 -3 95 -59 0 -44 -14 -50 -102 -43 l-81 5 7 -64 c14
-118 103 -425 153 -522 7 -15 11 -32 7 -38 -11 -18 -105 -5 -120 16 -20 26
-73 178 -100 283 -49 194 -67 357 -68 624 -1 135 2 250 6 254 9 8 184 31 256
33 l52 1 0 -49z m1039 -115 c37 -20 89 -80 98 -114 4 -15 7 -54 8 -87 l0 -60
-45 0 -45 0 -5 56 c-3 36 -12 65 -24 78 -45 50 -106 4 -106 -79 0 -62 16 -105
81 -220 128 -227 153 -302 147 -430 -7 -131 -49 -198 -130 -207 -93 -9 -148
55 -156 184 -5 84 1 94 51 87 38 -4 47 -18 47 -71 0 -116 73 -137 91 -26 14
90 -13 164 -151 423 -28 52 -57 117 -65 144 -20 65 -19 177 1 224 17 42 59 90
89 102 32 14 83 11 114 -4z m-1439 -56 c0 -5 -4 -10 -10 -10 -5 0 -10 5 -10
10 0 6 5 10 10 10 6 0 10 -4 10 -10z m700 6 c0 -3 -4 -8 -10 -11 -5 -3 -10 -1
-10 4 0 6 5 11 10 11 6 0 10 -2 10 -4z m1225 -26 c-3 -5 -12 -10 -18 -10 -7 0
-6 4 3 10 19 12 23 12 15 0z m-350 -310 c3 -5 1 -10 -4 -10 -6 0 -11 5 -11 10
0 6 2 10 4 10 3 0 8 -4 11 -10z"/>
<path d="M1481 1710 c-1 -8 -10 -107 -21 -220 -26 -275 -29 -250 25 -250 39 0
45 3 45 21 0 114 -45 522 -49 449z"/>
<path d="M757 2243 c-4 -3 -7 -30 -7 -60 0 -49 2 -53 23 -52 12 0 16 3 10 6
-7 2 -13 13 -13 23 0 10 6 21 13 23 10 4 10 6 0 6 -19 1 -16 32 5 47 16 12 16
13 -4 14 -11 0 -24 -3 -27 -7z"/>
<path d="M608 2175 c2 -36 7 -65 12 -65 5 0 10 29 12 65 2 53 0 65 -12 65 -12
0 -14 -12 -12 -65z"/>
<path d="M673 2180 c-1 -42 2 -54 6 -36 8 38 31 47 31 12 0 -14 5 -26 10 -26
6 0 10 25 10 55 0 30 -4 55 -10 55 -5 0 -10 -11 -10 -25 0 -34 -28 -32 -33 3
-2 15 -4 -2 -4 -38z"/>
</g>
</svg>
